
<svg xmlns="http://www.w3.org/2000/svg" version="1.1" xmlns:xlink="http://www.w3.org/1999/xlink" preserveAspectRatio="none" x="0px" y="0px" width="198px" height="197px" viewBox="0 0 198 197">
<defs>
<g id="Layer1_0_MEMBER_0_FILL">
<path fill="#565656" stroke="none" d="
M 738.7 359.95
Q 738.65 319.25 709.75 290.5 680.9 261.75 640 261.75 599.1 261.75 570.25 290.5 541.35 319.25 541.35 359.95 541.35 400.7 570.25 429.45 599.1 458.2 640 458.25 680.9 458.2 709.75 429.45 738.65 400.7 738.7 359.95
M 662.55 319.2
Q 663.05 304.25 664.95 304.4 674.8 307.6 684.05 316.85 702.2 335 702.2 360.65 702.2 386.4 684.05 404.5 665.9 422.6 640.2 422.6 614.55 422.6 596.4 404.5 578.25 386.35 578.25 360.65 578.25 335 596.35 316.85
L 596.4 316.8
Q 604.85 308.4 613.7 304.5 616.65 304.05 616.1 318.95 610.65 323.5 606.85 327.3 593.05 341.15 593.05 360.65 593.05 380.25 606.85 394.05
L 606.85 394
Q 620.65 407.8 640.2 407.8 659.8 407.8 673.6 394.05
L 673.6 394
Q 687.4 380.2 687.4 360.65 687.4 341.1 673.6 327.3 669.35 323.05 662.55 319.2
M 632.05 291.05
Q 632.05 287.95 634.25 285.8 636.4 283.6 639.5 283.6 642.6 283.6 644.8 285.8 646.95 287.95 646.95 291.05
L 646.95 355.95
Q 646.95 359.05 644.8 361.25 642.6 363.4 639.5 363.4 636.4 363.4 634.25 361.25 632.05 359.05 632.05 355.95
L 632.05 291.05 Z"/>
</g>
</defs>

<g id="Layer_1"/>

<g id="Layer_2">
<g transform="matrix( 1, 0, 0, 1, -541,-261.5) ">
<use xlink:href="#Layer1_0_MEMBER_0_FILL"/>
</g>
</g>

<g id="Layer_3"/>
</svg>
