
<svg xmlns="http://www.w3.org/2000/svg" version="1.1" xmlns:xlink="http://www.w3.org/1999/xlink" preserveAspectRatio="none" x="0px" y="0px" width="512px" height="512px" viewBox="0 0 512 512">
<defs>
<g id="Layer3_0_FILL">
<path fill="#52068A" stroke="none" d="
M -309.15 -248.95
L -309.15 909.6 849.4 909.6 849.4 -248.95 -309.15 -248.95 Z"/>
</g>

<g id="Layer2_0_MEMBER_0_MEMBER_0_FILL">
<path fill="#FFD2FE" stroke="none" d="
M 206.8 197.95
Q 202.3666015625 197.5041015625 197.7 197.6 184.023828125 197.8943359375 168.3 202.85 145.9 209.95 126.7 223.55 125.015234375 224.744140625 123.55 225.85 120.5359375 228.1978515625 118.45 230.25 116.8658203125 231.7958984375 115.55 233.35 116.178125 236.687890625 117.25 239.8 119.4 245.95 123.05 249.4 123.2314453125 249.571875 123.45 249.75 124.2298828125 250.8875 125.15 252.15 127.515234375 255.453125 129.55 257.25 130.048046875 257.66796875 130.5 258 131.35 258.7 132.3 259.05 132.78359375 259.1921875 133.25 259.2 133.3791015625 259.2859375 133.45 259.35 137.2599609375 263.4255859375 142.6 265.95 147.85 268.45 153.85 269.1 164.9 270.3 176.7 265.4 189.85 260 199.25 248.9 208.8 237.65 211.6 223.9 211.9619140625 222.1279296875 212.15 220.4 212.46328125 219.719921875 212.6 218.9 212.85 217.5 212.65 214.65 212.5927734375 213.95078125 212.5 213.3 212.465625 212.0287109375 212.3 210.8 212.3107421875 210.7541015625 212.3 210.7 212.133984375 210.1521484375 212.15 209.6 211.3185546875 203.700390625 208.4 198.15 207.641796875 198.0376953125 206.8 197.95
M 199 186.15
Q 188.55 177.05 173.4 174.6 157.65 172.05 143.85 177.7 136.8 180.6 131.1 185.5 125.2 190.55 121.55 197.05 117.8 203.7 115.95 212.85 114.8623046875 218.53671875 114.8 223.8 118.8845703125 219.7451171875 124.4 215.7 124.4203125 215.671875 124.45 215.65 137.3 206.15 152.1 199.8 166.95 193.45 182.65 190.7 186.065234375 190.0953125 189.3 189.7 196.0216796875 188.927734375 202 189.05 200.5935546875 187.553515625 199 186.15 Z"/>
</g>

<g id="Layer1_1_MEMBER_0_MEMBER_0_FILL">
<path fill="#52068A" stroke="none" d="
M 109.35 341.15
L 114.95 346.75 328.75 132.95 323.15 127.35 109.35 341.15
M 300.85 105.05
L 295.3 99.45 81.5 313.25 87.05 318.85 300.85 105.05
M 310.15 114.35
L 304.55 108.75 90.75 322.55 96.35 328.15 310.15 114.35
M 319.45 123.65
L 313.85 118.05 100.05 331.85 105.65 337.45 319.45 123.65
M 291.55 95.75
L 286 90.2 72.2 304 77.75 309.55 291.55 95.75
M 254.4 58.6
L 248.8 53 35 266.8 40.6 272.4 254.4 58.6
M 263.7 67.85
L 258.1 62.3 44.3 276.1 49.9 281.65 263.7 67.85
M 272.95 77.15
L 267.4 71.6 53.6 285.4 59.15 290.95 272.95 77.15
M 282.25 86.45
L 276.7 80.9 62.9 294.7 68.45 300.25 282.25 86.45 Z"/>
</g>

<g id="Layer0_0_MEMBER_0_MEMBER_0_FILL">
<path fill="#A03CD6" stroke="none" d="
M 351.95 177.1
Q 344.7 176.2 337.1 176.05 323.15 175.75 307.85 177.55 300.25 178.4 292.45 179.75 256.3 186.1 222.1 200.7 188.05 215.3 158.5 237.2 158.35 237.2 158.35 237.3 145.7 246.6 136.25 255.95 127.5 264.7 121.55 273.45 113.7 285.05 111.65 295.55 109 308.75 114.85 319.1 119.1 326.25 127.85 331.65 138.1 338.1 148.25 338.2 153.4 338.45 165 336.05
L 164.65 336.05
Q 167.565625 335.351171875 169.85 333.4 170.1 333.15 170.35 332.95 165.5 328.8 160.1 321.2 157.45 322.1 155.5 323.25 153.9 322.8 148.25 322.1 139.7 320.95 133.95 316.25 127.2 310.85 126.85 303 126.35 297.25 130.15 290.1 133.3 283.9 138.1 278.05 141 274.35 144.65 270.8 149.5 266.05 156.4 260.75 159.75 258.15 163.65 255.35 207.85 224.05 259.4 207.7 295.55 196.35 327.05 195.65 337.75 195.4 348 196.45 349.95 196.65 351.8 196.9 360.1 198.15 364.95 200.7 367.6 202.2 369.05 204.4 370.8 206.9 370 209.35 369.4 211.05 366.9 213.7 365.3421875 215.5544921875 364.15 216.95 363.2828125 217.6583984375 361.55 220.05 361.008203125 220.7966796875 360.6 221.3 360.63515625 221.4025390625 360.65 221.45 360.7130859375 223.4126953125 360.8 226 361.1818359375 233.4849609375 361.7 236.9 361.5259765625 237.02734375 361.35 237.15 361.375 237.1375 361.4 237.1 361.546484375 237.0203125 361.7 236.9 363.3345703125 235.8384765625 364.8 234.85
L 364.8 234.85
Q 365.09453125 234.6794921875 365.4 234.45 373.89453125 228.826171875 376.25 227.25 389.6517578125 218.5517578125 390.8 213.8 392.1 209.1 391.3 204.5 390.35 198.4 386.2 192.9 382.3 187.8 376.55 184.35 367.35 178.95 351.95 177.1 Z"/>
</g>

<path id="Layer3_0_1_STROKES" stroke="#FF0000" stroke-width="3" stroke-linejoin="miter" stroke-linecap="butt" stroke-miterlimit="3" fill="none" d="
M -309.15 -248.95
L 849.4 -248.95 849.4 909.6 -309.15 909.6 -309.15 -248.95 Z"/>

<path id="Layer1_0_1_STROKES" stroke="#FF0000" stroke-width="3" stroke-linejoin="miter" stroke-linecap="butt" stroke-miterlimit="3" fill="none" d="
M -1086.8 -505.4
L -1086.8 -151.25
M -1071.4 -505.4
L -1071.4 -151.25
M -1056 -505.4
L -1056 -151.25
M -1040.6 -505.4
L -1040.6 -151.25
M -1009.75 -505.4
L -1009.75 -151.25
M -994.4 -505.4
L -994.4 -151.25
M -979 -505.4
L -979 -151.25
M -963.6 -505.4
L -963.6 -151.25
M -1025.25 -505.4
L -1025.25 -151.25"/>
</defs>

<g id="Layer_4">
<g transform="matrix( 1, 0, 0, 1, 0,0) ">
<use xlink:href="#Layer3_0_FILL"/>

<use xlink:href="#Layer3_0_1_STROKES"/>
</g>
</g>

<g id="Layer_2">
<g transform="matrix( 3.2642974853515625, 0, 0, 3.2642974853515625, -279.55,-457.55) ">
<use xlink:href="#Layer2_0_MEMBER_0_MEMBER_0_FILL"/>
</g>
</g>

<g id="Layer_3">
<g transform="matrix( 1, 0, 0, 1, 0,0) ">
<use xlink:href="#Layer1_0_1_STROKES"/>
</g>

<g transform="matrix( 7.0882720947265625, 0, 0, 7.0882720947265625, -842.05,-1227.05) ">
<use xlink:href="#Layer1_1_MEMBER_0_MEMBER_0_FILL"/>
</g>
</g>

<g id="Layer_1">
<g transform="matrix( 1.418304443359375, 0, 0, 1.418304443359375, -98.05,-90) ">
<use xlink:href="#Layer0_0_MEMBER_0_MEMBER_0_FILL"/>
</g>
</g>
</svg>
