
<svg xmlns="http://www.w3.org/2000/svg" version="1.1" xmlns:xlink="http://www.w3.org/1999/xlink" preserveAspectRatio="none" x="0px" y="0px" width="512px" height="512px" viewBox="0 0 512 512">
<defs>
<linearGradient id="Gradient_1" gradientUnits="userSpaceOnUse" x1="163.9" y1="440.7375" x2="163.9" y2="96.76249999999999" spreadMethod="pad">
<stop  offset="0%" stop-color="#000000"/>

<stop  offset="100%" stop-color="#444444"/>
</linearGradient>

<linearGradient id="Gradient_2" gradientUnits="userSpaceOnUse" x1="332.8375" y1="417.525" x2="332.6625" y2="111.475" spreadMethod="pad">
<stop  offset="0%" stop-color="#000000"/>

<stop  offset="100%" stop-color="#444444"/>
</linearGradient>

<linearGradient id="Gradient_3" gradientUnits="userSpaceOnUse" x1="258.25" y1="425.5375" x2="258.25" y2="99.86249999999998" spreadMethod="pad">
<stop  offset="0%" stop-color="#000000"/>

<stop  offset="100%" stop-color="#444444"/>
</linearGradient>

<g id="Layer2_0_FILL">
<path fill="url(#Gradient_1)" stroke="none" d="
M 220.45 113.2
Q 204.89140625 116.4013671875 190 122.5 167 131.95 148.4 147.95 129.15 164.45 117.2 185.65 105.6083984375 206.1837890625 99.6 234.05
L 220.45 113.2 Z"/>

<path fill="url(#Gradient_2)" stroke="none" d="
M 411.15 273.3
Q 412.196875 268.1115234375 412.95 262.9
L 255.55 420.35
Q 276.0173828125 417.5625 297.25 408.75 310.64453125 403.2548828125 322.85 395.95 349.7353515625 379.8318359375 370.85 354.9 391.6986328125 330.3369140625 402.7 302.1 408.1240234375 288.1486328125 411.15 273.3 Z"/>

<path fill="url(#Gradient_3)" stroke="none" d="
M 403.15 194
Q 402.0736328125 191.6314453125 400.85 189.25
L 400.9 189.25
Q 412.65 191.05 419.55 194.65 423.3 196.75 425.35 199.9 427.85 203.45 426.7 206.9 425.85 209.3 422.3 213.1 420.1 215.7 418.5 217.7 417.2 218.7 414.7 222.1 413.95 223.15 413.45 223.95 413.45 224 413.45 224.15 413.5 226.85 413.65 230.55 414.25 241.15 414.95 246 414.8623046875 246.0439453125 414.8 246.1 414.8625 246.05 414.95 246.05 417.25 244.5 419.35 243.15
L 419.4 243.15
Q 419.75 242.85 420.25 242.5 432.25 234.55 435.65 232.35 454.55 219.95 456.2 213.2 458.05 206.55 456.9 200.05 455.55 191.4 449.7 183.6 444.15 176.35 436 171.45 422.95 163.8 401.1 161.15 390.8 159.9 380.05 159.7 360.25 159.25 338.55 161.8 327.8 163 316.7 164.95 305.86796875 166.8521484375 295.15 169.25 295.776171875 169.1138671875 296.4 168.95
L 337.15 128.2
Q 319.01171875 119.23125 297.8 114.55
L 218.3 194.05
Q 217.625 194.3619140625 216.95 194.65 168.65 215.35 126.75 246.4 126.55 246.4 126.55 246.55 108.6 259.75 95.2 273 82.8 285.4 74.35 297.8 63.2 314.25 60.3 329.15 56.55 347.9 64.85 362.55 70.85 372.7 83.25 380.35 97.8 389.5 112.2 389.65 119.388671875 389.9947265625 135.45 386.7 139.6 385.6 142.85 382.85 143.2 382.5 143.55 382.2 136.65 376.3 129 365.55 125.25 366.8 122.5 368.45 120.2 367.8 112.2 366.8 100.1 365.2 91.95 358.5 82.35 350.85 81.85 339.75 81.15 331.6 86.55 321.45 91 312.65 97.8 304.35 101.9 299.1 107.1 294.05 114 287.35 123.75 279.8 128.5 276.1 134.05 272.15 143.3857421875 265.5390625 152.95 259.4
L 99.55 312.75
Q 101.11875 319.1068359375 103.2 325.2 108.240625 339.673828125 115.8 349.55
L 256.25 209.1
Q 255.6849609375 209.30546875 255.1 209.5 262.41484375 206.909765625 269.85 204.55 315.6189453125 190.2166015625 356.15 187.85
L 155.35 388.65
Q 155.4587890625 388.69140625 155.55 388.7 155.9 388.85 156.2 389 168.45 402.4 185.9 410.55 186.154296875 410.6708984375 186.4 410.8
L 403.15 194 Z"/>
</g>

<g id="Layer0_0_FILL">
<path fill="#333333" stroke="none" d="
M 414.5 246.35
Q 414.5984375 246.2515625 414.65 246.25 414.4998046875 246.2505859375 414.45 246.35
L 414.5 246.35 Z"/>
</g>
</defs>

<g id="Layer_4"/>

<g id="Layer_2">
<g transform="matrix( 1, 0, 0, 1, 0,0) ">
<use xlink:href="#Layer2_0_FILL"/>
</g>
</g>

<g id="Layer_3"/>

<g id="Layer_1">
<g transform="matrix( 1, 0, 0, 1, 0,0) ">
<use xlink:href="#Layer0_0_FILL"/>
</g>
</g>
</svg>
